<?xml version="1.0" standalone="no"?>
<!DOCTYPE svg PUBLIC "-//W3C//DTD SVG 20010904//EN"
 "http://www.w3.org/TR/2001/REC-SVG-20010904/DTD/svg10.dtd">
<svg version="1.0" xmlns="http://www.w3.org/2000/svg"
 width="500.000000pt" height="500.000000pt" viewBox="0 0 500.000000 500.000000"
 preserveAspectRatio="xMidYMid meet">
<metadata>
Created by potrace 1.14, written by Peter Selinger 2001-2017
</metadata>
<g transform="translate(0.000000,500.000000) scale(0.100000,-0.100000)"
fill="#000000" stroke="none">
<path d="M2040 2911 c-5 -11 -10 -31 -10 -45 0 -28 -9 -33 -27 -15 -19 19
-128 13 -176 -10 -115 -56 -160 -187 -102 -301 44 -88 147 -141 229 -119 106
29 206 122 152 142 -8 3 -38 -3 -67 -14 -51 -20 -54 -20 -91 -3 -55 25 -98 77
-98 119 0 62 49 86 121 60 88 -32 117 -36 149 -20 22 12 30 23 30 43 0 36 -27
130 -46 160 -18 27 -50 29 -64 3z"/>
<path d="M2839 2878 c-16 -18 -29 -38 -29 -46 0 -7 -9 -30 -20 -52 -19 -37
-21 -39 -50 -28 -26 9 -38 7 -76 -13 -53 -28 -80 -67 -89 -130 -10 -68 12
-115 62 -128 52 -15 78 -14 93 4 18 22 31 19 56 -12 21 -27 23 -27 60 -14 46
16 124 77 124 96 0 21 -16 26 -46 15 -21 -8 -29 -8 -35 2 -8 13 -5 123 5 183
9 51 10 131 2 143 -12 19 -25 14 -57 -20z m-84 -242 c2 -11 6 -36 8 -53 3 -30
2 -32 -22 -26 -47 11 -61 23 -61 53 0 52 65 75 75 26z"/>
<path d="M3139 2802 c-25 -10 -63 -32 -85 -50 -37 -31 -39 -35 -39 -90 0 -78
35 -147 83 -168 56 -23 90 -18 171 25 26 13 24 31 -4 31 -26 0 -106 16 -135
28 -8 3 13 9 48 12 105 12 144 68 108 155 -15 34 -48 63 -83 69 -10 2 -39 -3
-64 -12z m59 -79 c-3 -19 -49 -48 -90 -58 -37 -9 -38 17 -2 50 33 30 98 36 92
8z"/>
<path d="M2335 2748 c-135 -69 -166 -207 -65 -291 35 -30 55 -29 99 2 13 9 39
25 57 37 37 22 103 117 104 147 0 33 -28 72 -67 93 -58 33 -83 35 -128 12z
m98 -110 c4 -12 1 -33 -6 -47 -13 -26 -71 -71 -93 -71 -13 0 -34 50 -34 81 0
32 40 59 86 59 35 0 43 -4 47 -22z"/>
<path d="M2004 2301 c-72 -21 -190 -84 -204 -111 -15 -28 -13 -33 21 -68 36
-36 64 -40 129 -17 24 8 45 14 46 12 2 -2 0 -69 -5 -149 -12 -180 -2 -231 49
-258 21 -11 60 -2 60 14 0 6 9 17 21 24 18 11 20 20 15 55 -7 56 -7 199 0 267
9 83 24 100 87 100 59 0 63 3 94 46 20 29 21 33 6 54 -9 12 -31 28 -49 36 -47
20 -194 17 -270 -5z"/>
<path d="M2441 2176 c-35 -57 -23 -96 30 -96 20 0 30 7 38 28 6 15 16 35 23
45 11 16 10 21 -11 38 -34 28 -57 24 -80 -15z"/>
<path d="M2701 2118 c-40 -83 -91 -283 -98 -385 -5 -78 -5 -83 14 -83 39 0 69
41 77 106 3 32 13 82 22 111 16 50 17 51 62 58 35 5 55 16 79 42 29 30 33 41
33 87 0 44 -4 56 -27 78 -38 35 -66 48 -102 48 -27 0 -33 -6 -60 -62z m113
-71 c9 -15 6 -23 -17 -43 -47 -40 -52 -31 -30 49 6 22 32 19 47 -6z"/>
<path d="M2983 2155 c-13 -9 -27 -34 -33 -56 -14 -50 -9 -57 83 -116 67 -44
71 -50 67 -88 -3 -29 -5 -29 -76 -35 -35 -3 -65 -9 -65 -14 0 -12 131 -52 158
-48 35 5 63 48 63 96 0 50 -21 84 -84 133 l-48 37 22 18 c29 24 63 23 85 -2
19 -21 50 -27 59 -11 11 17 -13 60 -42 75 -34 18 -116 24 -151 12 -16 -6 -21
-5 -17 3 10 15 5 14 -21 -4z"/>
<path d="M2403 2028 c-17 -21 -24 -66 -24 -150 0 -47 5 -85 12 -94 14 -17 52
-18 81 -3 20 11 20 13 5 24 -15 11 -14 17 8 81 13 38 26 76 30 86 5 12 -4 23
-32 42 -41 29 -65 33 -80 14z"/>
<path d="M2263 1234 c-16 -7 -17 -34 -3 -34 6 0 13 7 16 15 4 8 10 15 15 15
18 0 9 -42 -16 -74 -14 -18 -25 -36 -25 -39 0 -4 20 -7 45 -7 25 0 45 5 45 10
0 6 -14 10 -32 10 l-32 0 34 35 c28 29 32 39 24 53 -11 17 -48 25 -71 16z"/>
<path d="M2403 1228 c-17 -22 -22 -58 -12 -88 27 -76 104 -23 84 57 -10 41
-51 58 -72 31z m42 -27 c7 -32 -3 -81 -16 -81 -5 0 -9 25 -9 55 0 59 14 74 25
26z"/>
<path d="M2534 1225 c-9 -23 6 -33 17 -12 11 19 29 14 29 -8 0 -8 -13 -30 -30
-48 -16 -19 -30 -37 -30 -41 0 -3 23 -6 50 -6 28 0 50 5 50 10 0 6 -17 10 -37
10 l-37 0 33 28 c44 37 41 76 -7 80 -22 2 -34 -2 -38 -13z"/>
<path d="M2673 1234 c-16 -7 -17 -34 -3 -34 6 0 13 7 16 15 4 8 10 15 15 15
18 0 9 -42 -16 -74 -14 -18 -25 -36 -25 -39 0 -4 20 -7 45 -7 25 0 45 5 45 10
0 6 -14 10 -32 10 l-32 0 34 35 c28 29 32 39 24 53 -11 17 -48 25 -71 16z"/>
</g>
</svg>
